<svg width="164" height="100" viewBox="0 0 164 100" fill="none" xmlns="http://www.w3.org/2000/svg">
<path fill-rule="evenodd" clip-rule="evenodd" d="M68.8696 0C65.9881 0 63.6522 2.33591 63.6522 5.21739V94.7826C63.6522 97.6641 65.9881 100 68.8696 100H158.435C161.316 100 163.652 97.6641 163.652 94.7826V5.21739C163.652 2.33591 161.316 0 158.435 0L68.8696 0ZM104.125 25.6522H89.212V41.0168C84.2204 41.0168 80.174 45.0633 80.174 50.0548C80.174 55.0464 84.2204 59.0928 89.212 59.0928V74.0055H104.125C104.125 78.997 108.171 83.0434 113.163 83.0434C118.154 83.0434 122.201 78.997 122.201 74.0055H137.565V59.0928C132.574 59.0928 128.527 55.0464 128.527 50.0548C128.527 45.0633 132.574 41.0168 137.565 41.0168V25.6522H122.201C122.201 30.6437 118.154 34.6901 113.163 34.6901C108.171 34.6901 104.125 30.6437 104.125 25.6522Z" fill="#4C956C"/>
<path fill-rule="evenodd" clip-rule="evenodd" d="M9.038 25.6523H23.9507C23.9507 30.6438 27.9972 34.6902 32.9887 34.6902C37.9802 34.6902 42.0266 30.6438 42.0267 25.6523H57.3913L57.3913 41.017C52.3997 41.017 48.3533 45.0635 48.3533 50.055C48.3533 55.0466 52.3997 59.093 57.3913 59.093L57.3913 74.0056H42.0267C42.0267 78.9972 37.9802 83.0436 32.9887 83.0436C27.9972 83.0436 23.9508 78.9972 23.9507 74.0056H9.038V59.093C4.04645 59.093 0 55.0466 0 50.055C0 45.0635 4.04645 41.017 9.038 41.017V25.6523Z" fill="#4C956C"/>
<circle cx="15.6522" cy="51.7391" r="1.73913" fill="#36511F"/>
<circle cx="38.2609" cy="51.7391" r="1.73913" fill="#36511F"/>
<path d="M17.3913 56.0869C17.3913 56.0869 20.4348 58.6956 26.9565 58.6956C33.4783 58.6956 36.5217 56.0869 36.5217 56.0869" stroke="#36511F" stroke-width="1.73913" stroke-linecap="round"/>
<path d="M57 49.1304C56.5198 49.1304 56.1304 49.5198 56.1304 50C56.1304 50.4802 56.5198 50.8696 57 50.8696L57 49.1304ZM77 50L68.3043 44.9796L68.3043 55.0204L77 50ZM57 50.8696L69.1739 50.8696L69.1739 49.1304L57 49.1304L57 50.8696Z" fill="#FDB23A"/>
</svg>
