<svg width="108" height="100" viewBox="0 0 108 100" fill="none" xmlns="http://www.w3.org/2000/svg">
<rect y="19.585" width="91.2363" height="57.799" rx="5.73213" fill="#F4F4F4"/>
<path d="M0 23.4064C0 21.2959 1.71091 19.585 3.82142 19.585H87.4149C89.5254 19.585 91.2363 21.2959 91.2363 23.4064V28.6608H0L0 23.4064Z" fill="#4B4B4B"/>
<ellipse cx="7.64283" cy="24.3619" rx="1.91071" ry="1.91071" fill="#FD5350"/>
<ellipse cx="13.375" cy="24.3619" rx="1.91071" ry="1.91071" fill="#FDB23A"/>
<ellipse cx="19.1071" cy="24.3619" rx="1.91071" ry="1.91071" fill="#2DB844"/>
<path d="M72.2695 58.6176L65.7713 57.0378L77.4047 9.18586C77.4047 9.18585 78.184 5.98047 81.4331 6.77037C84.6822 7.56027 83.9029 10.7656 83.9029 10.7657L72.2695 58.6176Z" fill="#6C584C"/>
<path d="M70.4128 58.1664L63.9146 56.5866L75.5481 8.73469C75.5481 8.73468 76.3273 5.5293 79.5764 6.3192C82.8255 7.1091 82.0463 10.3145 82.0463 10.3145L70.4128 58.1664Z" fill="#4C956C"/>
<rect x="57.8806" y="55.1196" width="19.1071" height="5.25445" rx="2.62723" transform="rotate(13.6643 57.8806 55.1196)" fill="#D5D5D5"/>
<path d="M71.231 63.7729L60.9841 61.2817C57.4679 60.4269 53.7705 61.632 51.4335 64.3947L36.4754 82.0768C34.6407 84.2457 35.7298 87.5871 38.4902 88.2582L80.3657 98.4387C83.2222 99.1331 85.7603 96.477 84.9369 93.655L78.1452 70.3799C77.188 67.0995 74.5515 64.5801 71.231 63.7729Z" fill="#DDAE7E"/>
<path d="M61.9112 87.0699C62.0359 86.5572 61.7213 86.0406 61.2086 85.9159C60.6959 85.7913 60.1792 86.1059 60.0546 86.6186L61.9112 87.0699ZM58.7005 92.1884L58.4748 93.1168L60.3314 93.5681L60.5571 92.6398L58.7005 92.1884ZM60.0546 86.6186L58.7005 92.1884L60.5571 92.6398L61.9112 87.0699L60.0546 86.6186Z" fill="#6C584C"/>
<path d="M67.4812 88.4239C67.6058 87.9112 67.2912 87.3946 66.7785 87.2699C66.2658 87.1453 65.7492 87.4599 65.6245 87.9726L67.4812 88.4239ZM64.2704 93.5424L64.0447 94.4708L65.9014 94.9221L66.1271 93.9938L64.2704 93.5424ZM65.6245 87.9726L64.2704 93.5424L66.1271 93.9938L67.4812 88.4239L65.6245 87.9726Z" fill="#6C584C"/>
<path d="M73.051 89.7779C73.1756 89.2652 72.8611 88.7486 72.3484 88.6239C71.8357 88.4993 71.319 88.8139 71.1944 89.3266L73.051 89.7779ZM69.8403 94.8965L69.6146 95.8248L71.4712 96.2761L71.6969 95.3478L69.8403 94.8965ZM71.1944 89.3266L69.8403 94.8965L71.6969 95.3478L73.051 89.7779L71.1944 89.3266Z" fill="#6C584C"/>
<path d="M56.3413 85.7154C56.466 85.2027 56.1514 84.6861 55.6387 84.5614C55.126 84.4368 54.6094 84.7514 54.4847 85.2641L56.3413 85.7154ZM53.1306 90.834L52.9049 91.7623L54.7615 92.2136L54.9872 91.2853L53.1306 90.834ZM54.4847 85.2641L53.1306 90.834L54.9872 91.2853L56.3413 85.7154L54.4847 85.2641Z" fill="#6C584C"/>
<path d="M50.7715 84.3614C50.8961 83.8487 50.5815 83.3321 50.0688 83.2074C49.5561 83.0828 49.0395 83.3974 48.9148 83.9101L50.7715 84.3614ZM47.5607 89.4799L47.335 90.4083L49.1917 90.8596L49.4173 89.9313L47.5607 89.4799ZM48.9148 83.9101L47.5607 89.4799L49.4173 89.9313L50.7715 84.3614L48.9148 83.9101Z" fill="#6C584C"/>
<ellipse cx="56.8288" cy="71.5778" rx="0.955354" ry="0.955355" transform="rotate(13.6643 56.8288 71.5778)" fill="#6C584C"/>
<ellipse cx="71.6819" cy="75.1892" rx="0.955354" ry="0.955355" transform="rotate(13.6643 71.6819 75.1892)" fill="#6C584C"/>
<path d="M56.7515 67.8525L58.8377 69.0153" stroke="#6C584C" stroke-width="0.955355" stroke-linecap="round"/>
<path d="M73.8412 72.0073L71.454 72.0826" stroke="#6C584C" stroke-width="0.955354" stroke-linecap="round"/>
<path fill-rule="evenodd" clip-rule="evenodd" d="M61.3576 73.1704C61.3576 73.1705 61.3576 73.1705 61.3576 73.1705C60.9836 74.7086 61.9274 76.2586 63.4655 76.6325C65.0035 77.0065 66.5535 76.0627 66.9275 74.5247C66.9275 74.5246 66.9275 74.5246 66.9275 74.5245L61.3576 73.1704Z" fill="#6C584C"/>
<ellipse cx="36.7812" cy="62.576" rx="6.2098" ry="6.20981" fill="#8ECAE6"/>
<ellipse cx="21.4954" cy="59.2322" rx="4.29909" ry="4.2991" fill="#8ECAE6"/>
<ellipse cx="24.8392" cy="74.0402" rx="5.73212" ry="5.73213" fill="#8ECAE6"/>
<ellipse cx="22.9285" cy="57.3216" rx="0.955354" ry="0.955355" fill="white"/>
<ellipse cx="39.1695" cy="59.7099" rx="1.43303" ry="1.43303" fill="white"/>
<ellipse cx="26.7499" cy="71.6518" rx="1.43303" ry="1.43303" fill="white"/>
</svg>
