<svg width="100" height="100" viewBox="0 0 100 100" fill="none" xmlns="http://www.w3.org/2000/svg">
<path d="M0 59.6898C0 56.2648 2.77653 53.4883 6.20155 53.4883H93.7984C97.2235 53.4883 100 56.2648 100 59.6898V93.7984C100 97.2234 97.2235 99.9999 93.7984 99.9999H6.20155C2.77653 99.9999 0 97.2234 0 93.7984V59.6898Z" fill="#FAEDCD"/>
<path d="M100 59.6898V66.5645C100 67.8647 99.4557 69.1056 98.4991 69.9863L93.7778 74.3329C90.5193 77.3328 85.4146 76.9697 82.0559 74.0825C79.9007 72.2299 77.3925 70.4343 75 69.5736C69.2024 67.4876 60.9424 72.0384 55.5749 75.7341C52.379 77.9346 48.0086 77.94 44.8125 75.7398C39.2978 71.9434 30.7164 67.2178 24.8062 69.5736C22.6265 70.4424 20.3677 72.1348 18.405 73.8991C15.0977 76.8721 9.98202 77.3766 6.64146 74.441L1.58086 69.9938C0.575994 69.1107 0 67.8378 0 66.5V59.6898C0 56.2648 2.77653 53.4883 6.20155 53.4883H93.7985C97.2235 53.4883 100 56.2648 100 59.6898Z" fill="#EF476F"/>
<path d="M100 54.6513V61.5259C100 62.8262 99.4557 64.0671 98.4991 64.9478L93.7778 69.2943C90.5193 72.2942 85.4146 71.9312 82.0559 69.0439C79.9007 67.1913 77.3925 65.3958 75 64.535C69.2024 62.449 60.9424 66.9998 55.5749 70.6955C52.379 72.8961 48.0086 72.9015 44.8125 70.7012C39.2978 66.9048 30.7164 62.1792 24.8062 64.535C22.6265 65.4038 20.3677 67.0962 18.405 68.8605C15.0977 71.8335 9.98202 72.3381 6.64146 69.4024L1.58086 64.9552C0.575994 64.0722 0 62.7992 0 61.4614V54.6513C0 51.2262 2.77653 48.4497 6.20155 48.4497H93.7985C97.2235 48.4497 100 51.2262 100 54.6513Z" fill="#FFC8DD"/>
<path d="M17.0543 21.7786C17.0543 19.5124 18.8914 17.6753 21.1575 17.6753H79.1164C81.3826 17.6753 83.2197 19.5124 83.2197 21.7786V48.4499H17.0543V21.7786Z" fill="#FAEDCD"/>
<path d="M83.2197 21.7786V26.3272C83.2197 27.1875 82.8596 28.0086 82.2266 28.5913L79.1028 31.4672C76.9468 33.4521 73.5692 33.2119 71.3469 31.3015C69.9209 30.0757 68.2613 28.8877 66.6783 28.3182C62.8423 26.938 57.377 29.949 53.8256 32.3943C51.711 33.8503 48.8194 33.8539 46.7046 32.3981C43.0558 29.8862 37.3779 26.7595 33.4674 28.3182C32.0252 28.893 30.5307 30.0128 29.232 31.1802C27.0437 33.1473 23.6589 33.4811 21.4486 31.5388L18.1002 28.5962C17.4354 28.012 17.0543 27.1697 17.0543 26.2846V21.7786C17.0543 19.5124 18.8914 17.6753 21.1575 17.6753H79.1164C81.3826 17.6753 83.2197 19.5124 83.2197 21.7786Z" fill="#EF476F"/>
<path d="M83.2197 18.4446V22.9932C83.2197 23.8536 82.8596 24.6746 82.2266 25.2573L79.1028 28.1332C76.9468 30.1181 73.5692 29.8779 71.3469 27.9676C69.9209 26.7418 68.2613 25.5537 66.6783 24.9842C62.8423 23.604 57.377 26.6151 53.8256 29.0604C51.711 30.5163 48.8194 30.5199 46.7046 29.0641C43.0558 26.5522 37.3779 23.4255 33.4674 24.9842C32.0252 25.5591 30.5307 26.6788 29.232 27.8462C27.0437 29.8133 23.6589 30.1471 21.4486 28.2048L18.1002 25.2623C17.4354 24.678 17.0543 23.8357 17.0543 22.9506V18.4446C17.0543 16.1784 18.8914 14.3413 21.1575 14.3413H79.1164C81.3826 14.3413 83.2197 16.1784 83.2197 18.4446Z" fill="#FFC8DD"/>
<path d="M36.0465 87.2092C36.0465 87.2092 36.0465 84.1084 38.9535 84.1084C41.8605 84.1084 41.8605 87.2092 41.8605 87.2092" stroke="#6C584C" stroke-width="1.16279"/>
<path d="M57.752 87.2092C57.752 87.2092 57.752 84.1084 60.6589 84.1084C63.5659 84.1084 63.5659 87.2092 63.5659 87.2092" stroke="#6C584C" stroke-width="1.16279"/>
<circle cx="50" cy="87.9843" r="2.32558" fill="#6C584C"/>
<path d="M49.2755 1.90353C49.529 1.2376 50.471 1.2376 50.7245 1.90353L51.7576 4.61789C51.8381 4.82929 52.0068 4.995 52.2197 5.07157L54.9492 6.05352C55.6329 6.29949 55.6329 7.26641 54.9492 7.51237L52.2197 8.49432C52.0068 8.57089 51.8381 8.73661 51.7576 8.94801L50.7245 11.6624C50.471 12.3283 49.529 12.3283 49.2755 11.6624L48.2424 8.94801C48.1619 8.73661 47.9932 8.57089 47.7803 8.49432L45.0508 7.51237C44.3671 7.26641 44.3671 6.29949 45.0508 6.05352L47.7803 5.07157C47.9932 4.995 48.1619 4.82928 48.2424 4.61789L49.2755 1.90353Z" fill="#FDB23A"/>
</svg>
