<svg width="100" height="100" viewBox="0 0 100 100" fill="none" xmlns="http://www.w3.org/2000/svg">
<g clip-path="url(#clip0_73_146)">
<rect y="18" width="100" height="63.3508" rx="5.31294" fill="#F4F4F4"/>
<path d="M0 21.542C0 19.5858 1.58579 18 3.54196 18H96.458C98.4142 18 100 19.5858 100 21.542V27.9477H0L0 21.542Z" fill="#4B4B4B"/>
<ellipse cx="8.37696" cy="23.0942" rx="2.09424" ry="2.09424" fill="#FD5350"/>
<ellipse cx="14.6597" cy="23.0942" rx="2.09424" ry="2.09424" fill="#FDB23A"/>
<ellipse cx="20.9424" cy="23.0942" rx="2.09424" ry="2.09424" fill="#2DB844"/>
<path d="M66.9844 58.3312L60.9614 56.867L71.7441 12.5144C71.7441 12.5144 72.4664 9.54346 75.4779 10.2756C78.4894 11.0077 77.7671 13.9787 77.7671 13.9787L66.9844 58.3312Z" fill="#6C584C"/>
<path d="M65.2635 57.9128L59.2405 56.4485L70.0232 12.096C70.0232 12.096 70.7455 9.125 73.757 9.85713C76.7685 10.5893 76.0462 13.5602 76.0462 13.5603L65.2635 57.9128Z" fill="#4C956C"/>
<rect x="53.6478" y="55.0889" width="17.7098" height="4.87019" rx="2.4351" transform="rotate(13.6643 53.6478 55.0889)" fill="#D5D5D5"/>
<path d="M66.0219 63.1089L56.5244 60.8C53.2653 60.0076 49.8383 61.1247 47.6721 63.6853L33.808 80.0743C32.1074 82.0846 33.1169 85.1816 35.6754 85.8036L74.4886 95.2396C77.1362 95.8833 79.4887 93.4214 78.7255 90.8057L72.4305 69.2328C71.5433 66.1923 69.0996 63.8572 66.0219 63.1089Z" fill="#DDAE7E"/>
<path d="M57.3837 84.7023C57.4992 84.2271 57.2076 83.7483 56.7324 83.6327C56.2572 83.5172 55.7784 83.8088 55.6628 84.284L57.3837 84.7023ZM54.4077 89.4465L54.1986 90.307L55.9194 90.7253L56.1286 89.8649L54.4077 89.4465ZM55.6628 84.284L54.4077 89.4465L56.1286 89.8649L57.3837 84.7023L55.6628 84.284Z" fill="#6C584C"/>
<path d="M62.5463 85.9572C62.6618 85.482 62.3702 85.0031 61.895 84.8876C61.4198 84.7721 60.941 85.0637 60.8254 85.5389L62.5463 85.9572ZM59.5703 90.7014L59.3612 91.5619L61.082 91.9802L61.2912 91.1198L59.5703 90.7014ZM60.8254 85.5389L59.5703 90.7014L61.2912 91.1198L62.5463 85.9572L60.8254 85.5389Z" fill="#6C584C"/>
<path d="M67.7088 87.2126C67.8243 86.7374 67.5328 86.2585 67.0576 86.143C66.5824 86.0275 66.1035 86.319 65.988 86.7942L67.7088 87.2126ZM64.7329 91.9568L64.5237 92.8172L66.2445 93.2356L66.4537 92.3752L64.7329 91.9568ZM65.988 86.7942L64.7329 91.9568L66.4537 92.3752L67.7088 87.2126L65.988 86.7942Z" fill="#6C584C"/>
<path d="M52.2211 83.447C52.3366 82.9718 52.045 82.4929 51.5698 82.3774C51.0946 82.2618 50.6158 82.5534 50.5002 83.0286L52.2211 83.447ZM49.2451 88.1912L49.036 89.0516L50.7568 89.47L50.966 88.6095L49.2451 88.1912ZM50.5002 83.0286L49.2451 88.1912L50.966 88.6095L52.2211 83.447L50.5002 83.0286Z" fill="#6C584C"/>
<path d="M47.0585 82.1921C47.1741 81.7169 46.8825 81.238 46.4073 81.1225C45.9321 81.007 45.4532 81.2985 45.3377 81.7737L47.0585 82.1921ZM44.0826 86.9363L43.8734 87.7967L45.5943 88.2151L45.8035 87.3547L44.0826 86.9363ZM45.3377 81.7737L44.0826 86.9363L45.8035 87.3547L47.0585 82.1921L45.3377 81.7737Z" fill="#6C584C"/>
<ellipse cx="52.673" cy="70.3435" rx="0.885489" ry="0.88549" transform="rotate(13.6643 52.673 70.3435)" fill="#6C584C"/>
<ellipse cx="66.4398" cy="73.6902" rx="0.885489" ry="0.88549" transform="rotate(13.6643 66.4398 73.6902)" fill="#6C584C"/>
<path d="M52.6012 66.8901L54.5348 67.9679" stroke="#6C584C" stroke-width="0.885489" stroke-linecap="round"/>
<path d="M68.4412 70.7412L66.2285 70.811" stroke="#6C584C" stroke-width="0.885489" stroke-linecap="round"/>
<path fill-rule="evenodd" clip-rule="evenodd" d="M56.8705 71.8193C56.8705 71.8194 56.8705 71.8194 56.8705 71.8195C56.5239 73.2451 57.3986 74.6817 58.8243 75.0283C60.2499 75.3749 61.6865 74.5002 62.0331 73.0745C62.0331 73.0745 62.0331 73.0745 62.0331 73.0744L56.8705 71.8193Z" fill="#6C584C"/>
<ellipse cx="14.1769" cy="53.1769" rx="5.17687" ry="5.17687" fill="#8ECAE6"/>
<ellipse cx="15.9025" cy="50.8765" rx="1.15042" ry="1.15042" fill="white"/>
<ellipse cx="32.5835" cy="57.2038" rx="7.4777" ry="7.47771" fill="#8ECAE6"/>
<ellipse cx="35.4596" cy="53.7525" rx="1.72562" ry="1.72562" fill="white"/>
<ellipse cx="18.2033" cy="71.0085" rx="6.90249" ry="6.9025" fill="#8ECAE6"/>
<ellipse cx="20.5042" cy="68.1324" rx="1.72562" ry="1.72562" fill="white"/>
</g>
<defs>
<clipPath id="clip0_73_146">
<rect width="100" height="100" fill="white"/>
</clipPath>
</defs>
</svg>
