<svg width="100" height="100" viewBox="0 0 100 100" fill="none" xmlns="http://www.w3.org/2000/svg">
<g clip-path="url(#clip0_73_70)">
<path fill-rule="evenodd" clip-rule="evenodd" d="M52.6087 50C51.168 50 50 51.168 50 52.6087V97.3913C50 98.832 51.168 100 52.6087 100H97.3913C98.832 100 100 98.832 100 97.3913V52.6087C100 51.168 98.832 50 97.3913 50H52.6087ZM75 67C77.7614 67 80 64.7614 80 62H88V70.0318C85.3908 70.0318 83.2756 72.147 83.2756 74.7562C83.2756 77.3654 85.3908 79.4806 88 79.4806V87.2756H79.9685V87.2756C79.9685 89.8849 77.8533 92 75.2441 92C72.6349 92 70.5197 89.8849 70.5197 87.2756V87.2756H62.7244V79.4806C60.1152 79.4806 58 77.3654 58 74.7562C58 72.147 60.1152 70.0318 62.7244 70.0318V62H70C70 64.7614 72.2386 67 75 67Z" fill="#4C956C"/>
<path fill-rule="evenodd" clip-rule="evenodd" d="M7.87399 0L20.8661 0C20.8662 4.34862 24.3915 7.87386 28.7401 7.87386C33.0888 7.87386 36.6141 4.34862 36.6142 0L50 0V13.386C45.6513 13.3861 42.126 16.9113 42.126 21.26C42.126 25.6086 45.6513 29.1339 50 29.1339V42.1257H36.6142V42.126C36.6142 46.4746 33.0889 49.9999 28.7402 49.9999C24.3915 49.9999 20.8661 46.4746 20.8661 42.126V42.1257H7.87399V29.1339C3.5253 29.1339 0 25.6086 0 21.26C0 16.9113 3.5253 13.386 7.87399 13.386V0Z" fill="#4C956C"/>
<ellipse cx="13.6364" cy="22.7271" rx="1.51515" ry="1.51514" fill="#36511F"/>
<ellipse cx="33.3333" cy="22.7271" rx="1.51515" ry="1.51514" fill="#36511F"/>
<path d="M15.1515 26.5146C15.1515 26.5146 17.803 28.7874 23.4848 28.7874C29.1666 28.7874 31.8182 26.5146 31.8182 26.5146" stroke="#36511F" stroke-width="1.51515" stroke-linecap="round"/>
<path d="M49 20C48.4477 20 48 20.4477 48 21C48 21.5523 48.4477 22 49 22V20ZM75 21H76V20H75V21ZM75 63L80.7735 53H69.2265L75 63ZM49 22H75V20H49V22ZM74 21V54H76V21H74Z" fill="#FDB23A"/>
</g>
<defs>
<clipPath id="clip0_73_70">
<rect width="100" height="100" fill="white"/>
</clipPath>
</defs>
</svg>
