<svg width="346" height="542" viewBox="0 0 346 542" fill="none" xmlns="http://www.w3.org/2000/svg">
<path d="M167.386 393.233C161.657 396.021 160.476 400.633 157.091 406.161C147.085 422.5 148.11 454.737 148.148 455.813C148.112 454.83 147.046 427.849 138.218 414.055C131.371 403.356 119.133 404.075 114.484 392.199C112.228 386.438 115.135 381.804 111.925 376.541C105.306 365.691 87.0483 384.48 80.4297 373.63C77.2192 368.367 80.9899 363.292 77.8709 357.972C74.1151 351.564 67.0169 353.285 62.2267 347.658C58.8278 343.665 57.1987 340.928 55.6473 335.869C52.1403 324.436 64.4413 317.59 61.617 305.963C58.4533 292.94 40.6292 294.018 38.8816 280.729C36.7673 264.652 57.336 262.913 62.9808 247.873C70.2149 228.598 51.9467 211.482 63.6015 194.725C69.5087 186.232 78.6665 187.259 84.2164 178.51C88.307 172.062 85.4596 165.521 90.4665 159.811C96.1878 153.285 105.094 158.163 110.85 151.671C119.444 141.977 107.651 130.369 111.52 117.805C114.601 107.797 117.87 102.375 124.812 94.7445C133.592 85.0928 144.12 86.873 152.981 77.2999C162.689 66.8112 157.474 51.9929 169.27 44.1068C173.878 41.0261 177.985 42.1897 182.355 38.762C185.391 36.3815 185.648 33.3483 188.886 31.2692C193.437 28.3469 197.227 30.2068 202.483 29.0561C221.745 24.8389 238.682 -9.00558 248.781 8.66074C252.456 15.0878 249.428 20.4292 251.852 27.4505C254.217 34.2991 259.76 36.5016 260.71 43.6909C261.584 50.3064 256.022 53.7688 257.226 60.3327C259.058 70.3283 271.883 68.8127 275.66 78.2293C279.681 88.2562 270.707 95.5212 273.967 105.832C275.977 112.19 280.775 114.081 282.569 120.506C286.293 133.846 270.564 140.574 272.578 154.282C274.202 165.333 284.247 168.393 285.993 179.425C286.981 185.666 284.847 189.294 285.53 195.575C286.479 204.285 291.732 208.257 292.134 217.005C292.72 229.742 280.478 234.945 281.632 247.648C282.839 260.937 297.998 263.683 298.836 276.998C299.858 293.222 284.312 297.573 278.27 312.494C275.9 318.347 272.848 321.444 273.019 327.816C273.251 336.436 283.78 338.321 283.9 346.942C284.022 355.74 279.153 360.257 273.117 366.379C262.423 377.225 246.935 366.513 236.115 377.224C231.861 381.436 232.278 386.598 227.331 389.906C217.678 396.36 199.412 371.482 198.345 383.372C198.069 386.45 200.497 388.252 199.624 391.201C197.88 397.1 190.48 393.222 184.517 393.66C177.849 394.15 173.412 390.302 167.386 393.233Z" fill="#36511F"/>
<path d="M134.508 374.111C141.414 336.969 158.181 289.993 171.396 256.3C172.782 252.764 177.918 254.545 176.973 258.224C168.232 292.265 157.499 339.134 153.86 376.36C149.278 423.229 150.188 492.291 150.669 515.796C150.771 520.762 147.896 525.289 143.356 527.303C135.441 530.815 126.535 525.269 126.396 516.61C125.893 485.239 126.049 419.601 134.508 374.111Z" fill="#90A955"/>
<path d="M187.365 400.659C181.261 402.49 179.352 406.853 175.119 411.765C162.608 426.283 158.421 458.265 158.284 459.333C158.407 458.357 161.707 431.556 155.219 416.525C150.187 404.865 137.993 403.609 135.32 391.14C134.023 385.092 137.639 380.986 135.32 375.275C130.537 363.504 109.487 379.115 104.704 367.343C102.385 361.633 106.925 357.23 104.704 351.478C102.031 344.551 94.7478 345.109 90.9276 338.786C88.2171 334.299 87.0508 331.335 86.3354 326.094C84.7182 314.246 97.963 309.465 97.0506 297.537C96.0287 284.175 78.2631 282.376 78.6816 268.98C79.1879 252.772 99.7689 254.36 107.766 240.423C118.014 222.561 102.745 202.734 116.95 188.068C124.15 180.635 133.023 183.12 139.912 175.376C144.989 169.668 143.234 162.756 149.096 157.924C155.795 152.403 163.799 158.648 170.527 153.165C180.572 144.978 170.806 131.627 176.65 119.848C181.306 110.465 185.406 105.639 193.488 99.2237C203.711 91.1084 213.814 94.5566 224.103 86.5317C235.376 77.7392 232.62 62.2765 245.534 56.3881C250.579 54.0878 254.444 55.8959 259.311 53.2151C262.691 51.3532 263.434 48.401 266.964 46.8691C271.927 44.7159 275.368 47.1605 280.741 46.8691C300.432 45.8012 322.607 15.1187 329.725 34.177C332.315 41.1105 328.465 45.8959 329.725 53.2151C330.954 60.3542 336.07 63.4184 335.848 70.6666C335.644 77.3362 329.597 79.8601 329.725 86.5317C329.921 96.6913 342.824 97.2557 345.033 107.156C347.385 117.698 337.356 123.427 338.91 134.127C339.868 140.725 344.299 143.362 345.033 149.992C346.557 163.755 329.948 167.87 329.725 181.722C329.546 192.89 338.966 197.523 338.91 208.692C338.878 215.011 336.187 218.249 335.848 224.558C335.379 233.306 339.924 238.07 338.91 246.769C337.434 259.434 324.512 262.603 323.602 275.326C322.65 288.635 337.168 293.78 335.848 307.056C334.24 323.233 318.195 325.029 309.826 338.786C306.543 344.182 303.03 346.748 302.172 353.064C301.01 361.61 311.098 365.161 309.826 373.689C308.527 382.391 302.994 386.068 296.049 391.14C283.745 400.127 270.186 387.066 257.78 395.9C252.902 399.373 252.481 404.535 247.065 407.005C236.497 411.825 222.482 384.337 219.511 395.9C218.742 398.893 220.848 401.062 219.511 403.832C216.838 409.374 210.16 404.358 204.203 403.832C197.544 403.245 193.785 398.734 187.365 400.659Z" fill="#4C956C"/>
<path d="M158 376.505C170.806 340.956 194.932 297.286 213.409 266.154C215.348 262.888 220.129 265.47 218.603 268.95C204.485 301.143 186.333 345.677 176.737 381.833C164.655 427.355 154.415 495.661 151.099 518.937C150.398 523.856 146.831 527.862 142.025 529.121C133.647 531.315 125.751 524.41 127.011 515.842C131.575 484.798 142.315 420.042 158 376.505Z" fill="#ADC178"/>
<ellipse cx="6.40067" cy="6.38896" rx="6.40067" ry="6.38896" transform="matrix(0.978232 0.207513 -0.208311 0.978063 186.45 178.209)" fill="#36511F"/>
<ellipse cx="6.40067" cy="6.38896" rx="6.40067" ry="6.38896" transform="matrix(0.978232 0.207513 -0.208311 0.978063 270.978 196.14)" fill="#36511F"/>
<path d="M205.814 194.835C205.814 194.835 208.189 211.666 229.097 216.102C250.006 220.537 259.035 206.125 259.035 206.125" stroke="#36511F" stroke-width="5.83318" stroke-linecap="round"/>
<rect width="12.8013" height="6.38896" rx="3.19448" transform="matrix(0.978232 0.207513 -0.208311 0.978063 168.134 187.386)" fill="#FFC8DD"/>
<rect width="12.8013" height="6.38896" rx="3.19448" transform="matrix(0.978232 0.207513 -0.208311 0.978063 283.97 211.958)" fill="#FFC8DD"/>
</svg>
