<svg width="1075" height="1677" viewBox="0 0 1075 1677" fill="none" xmlns="http://www.w3.org/2000/svg">
<g filter="url(#filter0_d_88_79)">
<path d="M391.367 1367.49L455.338 1365.28C455.309 1364.45 454.584 1342.23 457.223 1314.98C459.99 1286.4 465.979 1258.11 476.197 1241.45C478.96 1236.95 481.278 1232.65 483.069 1229.34L483.447 1228.64C485.448 1224.93 486.684 1222.71 487.885 1220.88C489.613 1218.24 490.516 1217.5 492.247 1216.65C492.693 1216.67 493.74 1216.77 495.935 1217.2C496.535 1217.32 497.339 1217.5 498.322 1217.73C504.249 1219.08 516.655 1221.9 529.659 1220.95C530.406 1220.89 532.145 1220.93 536.288 1221.49C536.869 1221.57 537.601 1221.67 538.445 1221.79C541.823 1222.28 546.992 1223.02 551.412 1223.3C556.985 1223.65 567.086 1223.83 577.341 1219.14C586.43 1214.98 593.164 1208.22 597.494 1200.09C602.549 1203.02 608.031 1205.88 613.596 1208.11C625.633 1212.93 647.165 1218.46 667.421 1204.94L649.627 1178.33L667.421 1204.94C682.123 1195.13 688.417 1182.24 691.896 1174.83C695.661 1166.81 696.059 1166.09 697.245 1164.91C702.159 1160.06 707.382 1158.87 727.85 1158.82C728.527 1158.82 729.227 1158.82 729.95 1158.82C747.572 1158.82 778.45 1158.82 803.257 1133.7C804.293 1132.65 805.373 1131.57 806.487 1130.46C821.942 1115.03 843.81 1093.19 843.283 1055.35C842.924 1029.53 826.526 1013.66 819.319 1006.68C818.934 1006.31 818.574 1005.96 818.245 1005.64C814.579 1002.05 812.892 1000.11 812.18 999.245C812.241 996.87 812.761 995.034 814.142 991.977C814.978 990.126 815.866 988.393 817.186 985.816C817.567 985.071 817.985 984.256 818.449 983.346C820.334 979.645 822.643 974.996 824.857 969.536C829.546 957.975 836.531 950.514 847.119 939.206C849.796 936.347 852.703 933.242 855.861 929.763C870.604 913.523 888.194 890.51 885.906 854.244C883.923 822.81 864.548 803.703 853.488 792.798C853.076 792.391 852.675 791.995 852.287 791.611C839.711 779.16 837.2 775.394 836.675 769.632C836.117 763.489 837.857 759.156 846.219 745.999C846.579 745.432 846.954 744.845 847.343 744.238C855.1 732.113 868.082 711.823 866.784 683.637C865.898 664.407 859.387 650.426 854.954 640.944C850.467 631.349 848.454 626.893 847.758 620.507C847.258 615.921 847.68 612.52 848.661 605.066C849.647 597.562 851.054 586.639 848.874 572.892C844.992 548.408 831.676 532.48 823.504 522.706C823.177 522.315 822.858 521.933 822.548 521.562C813.944 511.234 811.46 507.398 810.593 501.513C809.729 495.642 811.582 491.21 822.05 474.753C822.249 474.44 822.453 474.12 822.661 473.794C831.503 459.919 847.64 434.598 838.301 401.2C833.896 385.448 825.557 375.165 820.59 369.04L820.281 368.658C815.267 362.471 814.225 360.87 813.409 358.293C812.199 354.472 812.513 351.42 816.735 337.645C816.828 337.339 816.924 337.026 817.023 336.707C820.796 324.436 827.552 302.465 817.433 277.279C807.645 252.913 786.249 242.074 776.323 237.045C775.51 236.633 774.774 236.26 774.127 235.922C770.328 233.934 768.25 232.718 767.041 231.905C767.389 231 767.955 229.624 768.865 227.604C769.029 227.241 769.208 226.849 769.401 226.428C772.557 219.53 779.196 205.02 776.742 186.48C774.226 167.469 765.126 155.155 759.078 147.422C758.645 146.87 758.235 146.346 757.846 145.849C752.561 139.101 751.112 137.251 749.948 133.888C748.677 130.211 748.673 127.515 748.661 118.465C748.66 117.949 748.659 117.411 748.658 116.852C748.641 106.966 748.259 91.5322 738.699 74.8366C733.177 65.1941 725.302 55.7073 713.848 49.8073C701.771 43.5864 689.361 43.2177 678.68 45.6492C660.44 49.8009 644.363 62.9976 633.756 72.0808C628.594 76.501 624.034 80.5905 619.682 84.4936C612.702 90.7544 606.256 96.5355 598.718 102.432C587.096 111.522 578.363 116.191 571.752 117.636C569.522 118.123 568.382 118.119 565.229 118.109C563.507 118.104 561.184 118.096 557.754 118.166C548.77 118.348 536.033 119.571 522.468 128.268C511.762 135.13 506.176 143.78 503.395 148.087L503.325 148.195C501.932 150.352 501.285 151.283 501.053 151.615C500.572 151.946 499.538 152.402 495.075 153.485C494.701 153.576 494.296 153.672 493.864 153.775C488.016 155.165 477.084 157.762 465.919 165.214C437.839 183.955 431.065 211.628 427.014 229.158L426.795 230.107C422.416 249.064 420.487 257.414 413.677 264.76C406.39 272.62 398.811 275.997 384.805 281.657C384.493 281.783 384.178 281.911 383.859 282.039C370.121 287.584 350.522 295.495 332.995 314.728C310.24 339.698 298.393 359.231 288.096 392.618C280.295 417.91 286.861 442.669 290.516 456.455C290.967 458.153 291.373 459.685 291.703 461.031C294.833 473.808 294.008 476.242 293.279 477.027C293.257 477.035 293.233 477.043 293.208 477.051C291.834 477.492 289.859 477.818 284.034 478.466C283.588 478.516 283.111 478.566 282.603 478.62C272.606 479.681 250.977 481.978 234.458 500.787C220.557 516.615 218.191 533.841 216.889 543.479C215.455 554.1 215.037 555.877 213.637 558.081C210.807 562.535 207.598 564.768 197.033 570.148C196.551 570.394 196.052 570.647 195.535 570.908C185.248 576.115 168.424 584.629 155.479 603.21C129.831 640.023 138.846 677.595 145.087 702.401L145.469 703.921C152.265 730.918 156.026 745.86 150.014 761.85C146.387 771.499 139.059 777.121 123.675 788.924C121.784 790.375 119.771 791.92 117.628 793.577C109.382 799.952 98.27 809.007 90.18 821.498C81.2464 835.291 76.8484 851.813 79.3773 871.01C83.9788 905.941 110.813 921.811 124.362 929.824C124.837 930.105 125.297 930.377 125.738 930.639C142.621 940.677 144.151 942.98 144.98 946.385C145.855 949.98 145.459 952.783 138.162 967.437C137.956 967.851 137.742 968.279 137.521 968.72C131.237 981.277 119.547 1004.64 128.425 1033.53C134.303 1052.66 141.301 1064.27 153.473 1078.54C165.552 1092.71 180.886 1098.29 188.239 1100.96C188.896 1101.2 189.49 1101.42 190.012 1101.61C192.195 1102.44 193.501 1102.98 194.307 1103.35C194.294 1104.29 194.252 1105.69 194.133 1107.72C194.115 1108.03 194.094 1108.37 194.071 1108.73C193.612 1116.07 192.596 1132.29 202.53 1148.55C207.853 1157.26 215.268 1164.3 224.635 1168.76C233.668 1173.05 242.642 1174.06 250.026 1173.88C262.605 1173.58 275.411 1169.47 283.182 1166.98C283.672 1166.83 284.141 1166.67 284.589 1166.53C287.747 1165.53 290.325 1164.73 292.448 1164.11C292.267 1170.82 292.176 1183.31 297.356 1196.52C308.221 1224.22 328.796 1236.84 342.534 1244.89L343.531 1245.48C357.395 1253.61 363.295 1257.07 368.035 1264.46C376.851 1278.21 383.159 1301.65 386.984 1325.53C390.623 1348.24 391.34 1366.75 391.367 1367.49ZM292.961 477.306C293.001 477.273 293.043 477.239 293.086 477.207C293.058 477.23 293.031 477.252 293.004 477.272C292.982 477.29 292.96 477.307 292.94 477.324C292.946 477.319 292.954 477.312 292.961 477.306Z" fill="#36511F" stroke="white" stroke-width="64"/>
<path d="M467.666 766.08C428.954 863.008 374.621 1010.8 352.907 1127.38C328.081 1260.67 327.757 1450.85 329.189 1540.2C329.963 1588.48 379.638 1618.6 422.645 1599.55C447.418 1588.58 463.11 1563.86 462.555 1536.81C461.177 1469.51 458.647 1274.36 471.528 1142.84C482.394 1031.88 516.167 888.794 541.869 790.857C547.84 768.104 533.642 749.506 516.881 743.621C508.732 740.759 498.839 740.319 489.243 744.199C479.082 748.306 471.554 756.346 467.666 766.08Z" fill="#90A955" stroke="white" stroke-width="64" stroke-linecap="round"/>
<path d="M420.567 1372.38L484.055 1380.46C484.161 1379.64 487.034 1357.6 494.04 1331.13C501.39 1303.36 511.871 1276.4 524.647 1261.6C528.101 1257.6 531.082 1253.73 533.385 1250.75L533.872 1250.11C536.445 1246.78 538.024 1244.79 539.505 1243.17C541.637 1240.85 542.649 1240.25 544.498 1239.69C544.935 1239.78 545.952 1240.05 548.052 1240.83C548.625 1241.05 549.389 1241.35 550.323 1241.73C555.955 1244.02 567.741 1248.79 580.728 1249.93C581.476 1250 583.186 1250.32 587.185 1251.53C587.746 1251.71 588.452 1251.93 589.267 1252.18C592.521 1253.2 597.502 1254.77 601.818 1255.75C607.262 1256.99 617.201 1258.78 628.078 1255.8C637.72 1253.15 645.458 1247.56 651.047 1240.23C655.563 1243.94 660.514 1247.63 665.648 1250.73C676.749 1257.42 697.103 1266.33 719.276 1256.23C735.37 1248.91 743.665 1237.19 748.296 1230.44C753.306 1223.13 753.817 1222.48 755.177 1221.51C760.814 1217.5 766.164 1217.17 786.374 1220.4C787.042 1220.51 787.733 1220.62 788.447 1220.74C805.838 1223.56 836.31 1228.52 864.849 1207.71C866.041 1206.84 867.282 1205.95 868.561 1205.03C886.307 1192.27 911.419 1174.23 917.013 1136.79C920.83 1111.25 907.209 1092.95 901.223 1084.91C900.903 1084.48 900.604 1084.08 900.331 1083.71C897.295 1079.58 895.943 1077.4 895.38 1076.43C895.824 1074.1 896.633 1072.37 898.489 1069.58C899.613 1067.88 900.769 1066.31 902.488 1063.98C902.985 1063.31 903.53 1062.57 904.134 1061.75C906.593 1058.4 909.622 1054.18 912.69 1049.15C919.185 1038.49 927.285 1032.24 939.562 1022.78C942.666 1020.39 946.036 1017.79 949.715 1014.86C966.889 1001.2 987.969 981.308 991.571 945.143C994.692 913.798 978.655 891.832 969.502 879.295C969.16 878.828 968.828 878.373 968.507 877.931C958.106 863.625 956.238 859.507 956.652 853.74C957.092 847.59 959.508 843.594 969.887 831.949C970.334 831.447 970.799 830.928 971.281 830.391C980.896 819.669 996.988 801.725 1000.26 773.695C1002.49 754.572 998.326 739.727 995.482 729.658C992.604 719.468 991.338 714.749 991.682 708.336C991.929 703.731 992.895 700.444 995.067 693.243C997.253 685.996 1000.41 675.44 1000.48 661.521C1000.6 636.731 990.03 618.874 983.544 607.917C983.285 607.478 983.031 607.051 982.786 606.634C975.961 595.061 974.131 590.878 974.227 584.934C974.322 579.004 976.865 574.928 989.855 560.364C990.103 560.086 990.356 559.803 990.614 559.515C1001.58 547.239 1021.6 524.835 1017.78 490.371C1015.98 474.117 1009.41 462.629 1005.49 455.787L1005.25 455.361C1001.3 448.45 1000.53 446.704 1000.14 444.031L968.477 448.639L1000.14 444.031C999.567 440.069 1000.37 437.11 1006.76 424.19C1006.9 423.903 1007.05 423.61 1007.2 423.311C1012.9 411.805 1023.12 391.202 1017.2 364.718C1011.48 339.098 992.113 324.968 983.129 318.414C982.393 317.877 981.727 317.391 981.143 316.953C977.718 314.385 975.864 312.852 974.802 311.855C975.291 311.018 976.071 309.752 977.294 307.909C977.514 307.576 977.755 307.218 978.013 306.833C982.242 300.532 991.139 287.274 991.713 268.58C992.301 249.41 985.308 235.796 980.588 227.195C980.251 226.58 979.931 225.998 979.628 225.446C975.5 217.937 974.37 215.879 973.765 212.375C973.104 208.543 973.536 205.883 974.986 196.949C975.069 196.439 975.155 195.909 975.244 195.357C976.824 185.597 978.941 170.301 972.202 152.288C968.31 141.885 962.07 131.258 951.718 123.598C940.805 115.523 928.618 113.169 917.685 113.856C899.015 115.028 881.017 125.473 869.08 132.737C863.272 136.272 858.111 139.577 853.185 142.731C845.284 147.791 837.988 152.463 829.595 157.074C816.657 164.181 807.282 167.39 800.522 167.756C798.241 167.879 797.116 167.693 794.005 167.177C792.305 166.895 790.014 166.515 786.619 166.034C777.723 164.773 764.957 163.938 750.165 170.345C738.492 175.401 731.581 183.041 728.14 186.846L728.054 186.941C726.33 188.848 725.541 189.662 725.258 189.953C724.73 190.203 723.637 190.487 719.053 190.841C718.669 190.871 718.254 190.901 717.811 190.933C711.815 191.366 700.607 192.177 688.385 197.74C657.645 211.733 646.487 237.959 639.657 254.612L639.287 255.514C631.903 273.521 628.651 281.452 620.742 287.61C612.279 294.2 604.252 296.317 589.515 299.658C589.186 299.732 588.855 299.807 588.52 299.883C574.065 303.152 553.444 307.817 533.04 323.988C506.548 344.983 491.699 362.361 476.142 393.662L502.204 406.616L476.142 393.662C464.356 417.375 466.836 442.867 468.217 457.059C468.387 458.807 468.54 460.384 468.648 461.765C469.674 474.877 468.466 477.145 467.62 477.802C467.597 477.806 467.571 477.81 467.544 477.814C466.116 478.029 464.113 478.035 458.259 477.74C457.811 477.717 457.332 477.69 456.822 477.662C446.784 477.107 425.069 475.904 405.728 491.818C389.451 505.21 384.332 521.833 381.491 531.137C378.359 541.39 377.66 543.075 375.923 545.026C372.41 548.968 368.881 550.658 357.584 554.274C357.069 554.439 356.535 554.608 355.983 554.783C344.989 558.272 327.01 563.978 311.232 580.239C279.969 612.461 282.797 650.991 284.949 676.476L285.08 678.035C287.426 705.772 288.724 721.119 280.209 735.935C275.07 744.875 266.929 749.249 249.838 758.432C247.737 759.561 245.501 760.763 243.118 762.054C233.951 767.024 221.521 774.178 211.518 785.209C200.472 797.39 193.462 812.992 192.856 832.347C191.754 867.565 215.676 887.532 227.753 897.613C228.177 897.967 228.586 898.308 228.979 898.638C244.022 911.254 245.158 913.771 245.426 917.261C245.708 920.946 244.867 923.646 235.297 936.94C235.026 937.316 234.746 937.704 234.456 938.104C226.226 949.489 210.913 970.673 215.007 1000.62C217.717 1020.44 222.75 1033.02 232.458 1049.06C242.091 1064.98 256.323 1072.94 263.148 1076.76C263.758 1077.1 264.31 1077.41 264.793 1077.69C266.813 1078.85 268.013 1079.6 268.75 1080.1C268.585 1081.02 268.316 1082.4 267.873 1084.37C267.804 1084.68 267.729 1085.01 267.649 1085.36C266.01 1092.53 262.385 1108.38 269.564 1126.02C273.411 1135.47 279.592 1143.61 288.117 1149.51C296.337 1155.2 305.031 1157.63 312.346 1158.64C324.809 1160.36 338.11 1158.36 346.183 1157.15C346.691 1157.07 347.178 1157 347.644 1156.93C350.924 1156.44 353.598 1156.07 355.794 1155.8C354.532 1162.39 352.426 1174.7 355.404 1188.57C361.652 1217.66 379.922 1233.41 392.178 1243.56L393.067 1244.3C405.437 1254.55 410.702 1258.91 414.184 1266.96C420.663 1281.95 423.103 1306.09 423.02 1330.27C422.942 1353.27 420.659 1371.66 420.567 1372.38ZM467.262 478.026C467.307 477.999 467.354 477.972 467.403 477.947C467.371 477.965 467.34 477.983 467.31 477.999C467.285 478.013 467.261 478.027 467.237 478.04C467.245 478.036 467.253 478.031 467.262 478.026Z" fill="#4C956C" stroke="white" stroke-width="64"/>
<path d="M593.039 791.045L620.453 807.553L593.039 791.046C539.172 880.501 461.668 1017.65 421.402 1129.23C375.367 1256.8 344.321 1444.45 331.299 1532.86C324.262 1580.65 368.418 1618.35 413.941 1606.44C440.164 1599.59 459.644 1577.7 463.468 1550.91C472.98 1484.27 502.011 1291.26 535.972 1163.52C564.623 1055.75 621.073 919.946 662.262 827.408C671.832 805.908 660.826 785.274 645.237 776.775C637.657 772.643 627.966 770.621 617.869 772.91C607.178 775.334 598.449 782.061 593.039 791.045Z" fill="#ADC178" stroke="white" stroke-width="64" stroke-linecap="round"/>
<ellipse cx="18.2894" cy="18.2278" rx="18.2894" ry="18.2278" transform="matrix(0.978303 0.207178 -0.208647 0.977991 532.804 574.397)" fill="#36511F"/>
<ellipse cx="18.2894" cy="18.2278" rx="18.2894" ry="18.2278" transform="matrix(0.978303 0.207178 -0.208647 0.977991 774.354 625.551)" fill="#36511F"/>
<path d="M588.139 621.827C588.139 621.827 594.926 669.844 654.675 682.497C714.423 695.15 740.226 654.035 740.226 654.035" stroke="#36511F" stroke-width="14.1177" stroke-linecap="round"/>
<rect width="36.5789" height="18.2278" rx="9.11392" transform="matrix(0.978303 0.207178 -0.208647 0.977991 480.466 600.577)" fill="#FFC8DD"/>
<rect width="36.5789" height="18.2278" rx="9.11392" transform="matrix(0.978303 0.207178 -0.208647 0.977991 811.48 670.678)" fill="#FFC8DD"/>
</g>
<path d="M478.328 1187.82C461.955 1195.77 458.583 1208.93 448.908 1224.7C420.309 1271.32 423.246 1363.31 423.351 1366.35C423.249 1363.57 420.207 1286.58 394.977 1247.22C375.411 1216.7 340.439 1218.75 327.153 1184.87C320.707 1168.43 329.015 1155.21 319.84 1140.2C300.927 1109.25 248.752 1162.85 229.838 1131.9C220.664 1116.88 231.439 1102.4 222.526 1087.23C211.794 1068.95 191.51 1073.86 177.821 1057.8C168.108 1046.41 163.453 1038.6 159.019 1024.17C148.998 991.554 184.15 972.023 176.079 938.856C167.038 901.703 116.103 904.779 111.109 866.868C105.068 821.003 163.845 816.041 179.976 773.134C200.648 718.147 148.445 669.318 181.75 621.514C198.63 597.286 224.8 600.216 240.659 575.256C252.349 556.859 244.212 538.202 258.52 521.91C274.869 503.294 300.32 517.211 316.768 498.688C341.327 471.033 307.627 437.918 318.682 402.075C327.488 373.523 336.83 358.056 356.666 336.288C381.758 308.754 411.843 313.832 437.163 286.522C464.904 256.6 450.003 214.326 483.712 191.828C496.88 183.04 508.614 186.359 521.105 176.581C529.78 169.789 530.514 161.137 539.766 155.205C552.771 146.868 563.603 152.174 578.622 148.892C633.667 136.861 682.066 40.3088 710.926 90.7075C721.425 109.043 712.773 124.281 719.7 144.311C726.457 163.849 742.298 170.132 745.013 190.642C747.511 209.515 731.618 219.392 735.056 238.118C740.292 266.634 776.942 262.31 787.735 289.173C799.226 317.778 773.581 338.504 782.896 367.918C788.64 386.058 802.352 391.452 807.477 409.782C818.119 447.837 773.172 467.032 778.929 506.137C783.569 537.663 812.273 546.392 817.263 577.866C820.086 595.67 813.987 606.021 815.941 623.939C818.65 648.786 833.662 660.117 834.812 685.074C836.486 721.412 801.504 736.255 804.801 772.494C808.25 810.405 851.567 818.238 853.964 856.222C856.884 902.508 812.459 914.919 795.194 957.487C788.422 974.184 779.698 983.019 780.188 1001.2C780.852 1025.79 810.938 1031.17 811.281 1055.76C811.63 1080.86 797.718 1093.75 780.468 1111.21C749.909 1142.15 705.649 1111.59 674.73 1142.15C662.573 1154.16 663.766 1168.89 649.627 1178.33C622.043 1196.74 569.846 1125.77 566.797 1159.69C566.008 1168.47 572.946 1173.61 570.453 1182.02C565.467 1198.85 544.322 1187.79 527.28 1189.04C508.227 1190.44 495.548 1179.46 478.328 1187.82Z" fill="#36511F"/>
<path d="M384.373 1133.27C405.46 1020.05 458.72 874.8 497.392 777.971C500.801 769.438 513.242 773.818 510.91 782.706C485.167 880.802 450.808 1026 439.674 1139.68C426.582 1273.36 429.181 1470.33 430.556 1537.42C430.847 1551.62 422.63 1564.55 409.652 1570.3C387.036 1580.32 361.588 1564.46 361.191 1539.72C359.756 1450.2 360.208 1263.01 384.373 1133.27Z" fill="#90A955"/>
<path d="M535.418 1209.01C517.974 1214.23 512.52 1226.67 500.423 1240.69C464.666 1282.11 452.703 1373.37 452.315 1376.39C452.663 1373.63 462.099 1297.16 443.557 1254.27C429.177 1221 394.33 1217.42 386.69 1181.85C382.985 1164.6 393.32 1152.88 386.69 1136.59C373.024 1103.01 312.87 1147.54 299.204 1113.96C292.575 1097.67 305.548 1085.11 299.204 1068.7C291.564 1048.94 270.751 1050.53 259.835 1032.49C252.089 1019.69 248.756 1011.24 246.712 996.284C242.091 962.484 279.939 948.846 277.332 914.816C274.412 876.699 223.644 871.565 224.84 833.348C226.287 787.112 285.1 791.641 307.952 751.88C337.239 700.925 293.605 644.361 334.198 602.523C354.773 581.317 380.128 588.406 399.813 566.315C414.323 550.032 409.306 530.313 426.059 516.529C445.203 500.777 468.074 518.594 487.3 502.951C516.007 479.594 488.096 441.507 504.797 407.905C518.102 381.137 529.82 367.37 552.915 349.067C582.128 325.915 611 335.752 640.402 312.859C672.616 287.776 664.739 243.663 701.642 226.865C716.059 220.303 727.104 225.461 741.011 217.813C750.67 212.501 752.793 204.079 762.883 199.709C777.065 193.566 786.898 200.54 802.252 199.709C858.523 196.662 921.89 109.131 942.231 163.501C949.631 183.281 938.63 196.933 942.231 217.813C945.743 238.179 960.362 246.921 959.728 267.599C959.144 286.626 941.863 293.826 942.231 312.859C942.791 341.842 979.663 343.452 985.974 371.697C992.694 401.772 964.036 418.114 968.477 448.639C971.216 467.463 983.876 474.986 985.974 493.899C990.329 533.164 942.867 544.901 942.231 584.419C941.717 616.278 968.636 629.497 968.477 661.36C968.386 679.385 960.694 688.623 959.728 706.62C958.388 731.578 971.374 745.168 968.477 769.984C964.258 806.117 927.334 815.157 924.733 851.452C922.013 889.421 963.5 904.099 959.728 941.972C955.132 988.123 909.282 993.248 885.364 1032.49C875.983 1047.89 865.946 1055.21 863.493 1073.23C860.174 1097.6 889 1107.73 885.364 1132.06C881.654 1156.89 865.842 1167.38 845.995 1181.85C810.836 1207.49 772.09 1170.23 736.637 1195.43C722.698 1205.34 721.496 1220.06 706.017 1227.11C675.818 1240.86 635.768 1162.44 627.279 1195.43C625.081 1203.97 631.099 1210.15 627.279 1218.06C619.639 1233.87 600.557 1219.56 583.535 1218.06C564.505 1216.38 553.764 1203.51 535.418 1209.01Z" fill="#4C956C"/>
<path d="M451.502 1140.1C490.607 1031.73 566.641 896.917 620.453 807.553C625.195 799.677 636.766 805.997 633.027 814.396C591.772 907.084 534.401 1044.88 505.046 1155.3C470.529 1285.13 441.273 1479.94 431.789 1546.39C429.783 1560.44 419.583 1571.89 405.845 1575.48C381.905 1581.74 359.352 1562.01 362.958 1537.53C376.006 1448.94 406.694 1264.27 451.502 1140.1Z" fill="#ADC178"/>
<ellipse cx="18.2894" cy="18.2278" rx="18.2894" ry="18.2278" transform="matrix(0.978303 0.207178 -0.208647 0.977991 532.804 574.397)" fill="#36511F"/>
<ellipse cx="18.2894" cy="18.2278" rx="18.2894" ry="18.2278" transform="matrix(0.978303 0.207178 -0.208647 0.977991 774.354 625.551)" fill="#36511F"/>
<path d="M588.139 621.827C588.139 621.827 594.926 669.844 654.675 682.497C714.423 695.15 740.226 654.035 740.226 654.035" stroke="#36511F" stroke-width="14.1177" stroke-linecap="round"/>
<rect width="36.5789" height="18.2278" rx="9.11392" transform="matrix(0.978303 0.207178 -0.208647 0.977991 480.466 600.577)" fill="#FFC8DD"/>
<rect width="36.5789" height="18.2278" rx="9.11392" transform="matrix(0.978303 0.207178 -0.208647 0.977991 811.48 670.678)" fill="#FFC8DD"/>
<defs>
<filter id="filter0_d_88_79" x="22.6633" y="0.263672" width="1052.31" height="1676.4" filterUnits="userSpaceOnUse" color-interpolation-filters="sRGB">
<feFlood flood-opacity="0" result="BackgroundImageFix"/>
<feColorMatrix in="SourceAlpha" type="matrix" values="0 0 0 0 0 0 0 0 0 0 0 0 0 0 0 0 0 0 127 0" result="hardAlpha"/>
<feOffset dy="12"/>
<feGaussianBlur stdDeviation="12"/>
<feComposite in2="hardAlpha" operator="out"/>
<feColorMatrix type="matrix" values="0 0 0 0 0 0 0 0 0 0 0 0 0 0 0 0 0 0 0.25 0"/>
<feBlend mode="normal" in2="BackgroundImageFix" result="effect1_dropShadow_88_79"/>
<feBlend mode="normal" in="SourceGraphic" in2="effect1_dropShadow_88_79" result="shape"/>
</filter>
</defs>
</svg>
